<svg xmlns="http://www.w3.org/2000/svg" version="1.1" xmlns:xlink="http://www.w3.org/1999/xlink" xmlns:svgjs="http://svgjs.dev/svgjs" width="1500" height="1500" viewBox="0 0 1500 1500"><rect width="1500" height="1500" fill="#ffffff"></rect><g transform="matrix(0.6666666666666666,0,0,0.6666666666666666,249.39436519522388,516.666591060482)"><svg viewBox="0 0 396 185" data-background-color="#ffffff" preserveAspectRatio="xMidYMid meet" height="700" width="1500" xmlns="http://www.w3.org/2000/svg" xmlns:xlink="http://www.w3.org/1999/xlink"><g id="tight-bounds" transform="matrix(1,0,0,1,0.24008861730862918,0.000029972451798698785)"><svg viewBox="0 0 395.52 184.9999400550964" height="184.9999400550964" width="395.52"><g><svg viewBox="0 0 395.52 184.9999400550964" height="184.9999400550964" width="395.52"><g><svg viewBox="0 0 395.52 184.9999400550964" height="184.9999400550964" width="395.52"><g id="textblocktransform"><svg viewBox="0 0 395.52 184.9999400550964" height="184.9999400550964" width="395.52" id="textblock"><g><svg viewBox="0 0 395.52 184.9999400550964" height="184.9999400550964" width="395.52"><path d="M394.594 39.679C392.735 20.476 387.435 15.138 387.435 15.138 371.165-4.641 350.86-0.378 332.619 2.464 300.414 2.579 268.339 6.804 236.208 9.069 168.767 9.415 100.749 3.731 33.643 17.749 27.339 22.051-6.54 18.594 1.121 42.137 3.129 51.93 10.456 62.799 10.232 71.786 11.236 73.361 12.631 69.751 13.226 72.017 15.309 78.123 18.711 75.243 21.501 78.853 17.614 88.493 20.403 96.52 23.062 104.93 18.377 107.12 12.371 106.083 9.675 113.341 9.396 118.603 7.89 117.604 6.235 117.374 5.026 117.22 2.59 117.796 2.999 119.448 4.394 125.094-1.594 128.358 2.162 133.889-0.422 139.88 3.948 145.065 3.353 151.555 3.278 152.861 3.687 153.975 4.338 154.282 7.22 155.933 3.018 159.16 3.464 162.655 33.029 186.543 65.104 170.028 95.394 181.013 103.259 173.331 97.346 183.739 100.489 182.126 102.943 180.244 104.728 188.041 107.499 183.624 107.927 182.357 107.276 179.361 108.8 179.937 109.6 180.244 110.307 180.168 110.418 178.401 110.586 175.751 109.117 177.402 108.726 176.02 112.947 169.03 111.906 185.66 115.866 184.968 115.68 182.933 114.528 180.014 116.889 180.398 119.232 177.479 119.306 175.06 121.389 181.627 121.463 183.048 121.835 184.047 122.43 184.738 128.938 177.594 135.409 187.273 142.233 184.047 146.417 180.513 150.433 185.967 154.672 184.623 156.16 183.547 157.666 181.627 159.098 184.853 176.632 185.544 195.319 182.664 211.943 184.968 256.364 180.667 303.836 186.735 350.674 181.051 361.719 178.862 373.192 175.751 383.958 173.255 383.958 173.255 392.679 166.418 392.679 135.694S394.538 108.809 394.817 84.345C395.096 59.88 396.398 58.882 394.538 39.679Z" opacity="1" fill="#08812e" data-fill-palette-color="tertiary"></path><g transform="matrix(1,0,0,1,55.76832,26.230666666666668)"><svg width="283.98335999999995" viewBox="1.93 -43.51 106.33 49.64" height="132.53860672176307" data-palette-color="#ffffff"><path d="M10.45 0.49L10.45 0.49Q7.84 0.49 6.2-0.45 4.57-1.39 3.69-3.13 2.81-4.86 2.48-7.21 2.15-9.57 2.15-12.43L2.15-12.43 2.15-16.6 7.06-16.6 7.06-12.23Q7.06-7.71 7.7-5.77 8.35-3.83 10.5-3.83L10.5-3.83Q11.99-3.83 12.68-4.53 13.38-5.22 13.57-6.76 13.77-8.3 13.77-10.82L13.77-10.82Q13.77-13.7 12.76-15.77 11.74-17.85 9.84-19.75L9.84-19.75 7.03-22.56Q5.81-23.8 4.64-25.28 3.47-26.76 2.7-28.64 1.93-30.52 1.93-32.93L1.93-32.93Q1.93-36.18 2.61-38.55 3.3-40.92 5.1-42.21 6.91-43.51 10.23-43.51L10.23-43.51Q12.84-43.51 14.42-42.6 15.99-41.7 16.78-40.03 17.58-38.35 17.83-36.06 18.09-33.76 18.09-30.98L18.09-30.98 18.09-28.44 13.26-28.44 13.26-31.32Q13.26-33.94 13.05-35.68 12.84-37.43 12.21-38.31 11.57-39.18 10.23-39.18L10.23-39.18Q9.01-39.18 8.24-38.59 7.47-37.99 7.13-36.74 6.79-35.5 6.79-33.54L6.79-33.54Q6.79-31.84 7.2-30.73 7.62-29.61 8.46-28.66 9.3-27.71 10.52-26.42L10.52-26.42 13.45-23.32Q15.77-20.9 17.25-17.91 18.73-14.92 18.73-10.96L18.73-10.96Q18.73-7.4 18.03-4.83 17.33-2.27 15.55-0.89 13.77 0.49 10.45 0.49ZM28.76 0L23.75 0 23.75-43.43 28.76-43.43 28.76-32.74Q29.25-34.45 30.82-35.77 32.39-37.08 34.59-37.08L34.59-37.08Q37.35-37.08 38.91-35.13 40.48-33.18 40.48-29.2L40.48-29.2 40.48 0 35.47 0 35.47-28.78Q35.47-31.03 34.65-31.9 33.84-32.76 32.47-32.76L32.47-32.76Q31.47-32.76 30.61-32.29 29.76-31.81 29.26-30.8 28.76-29.79 28.76-28.17L28.76-28.17 28.76 0ZM54.95 0.44L54.95 0.44Q52.31 0.44 50.72-0.48 49.12-1.39 48.29-3.08 47.46-4.76 47.18-7.12 46.89-9.47 46.89-12.33L46.89-12.33 46.89-25.27Q46.89-27.86 47.26-30.02 47.63-32.18 48.53-33.75 49.43-35.33 51.04-36.19 52.66-37.06 55.15-37.06L55.15-37.06Q57.66-37.06 59.2-36.18 60.74-35.3 61.53-33.7 62.32-32.1 62.59-29.9 62.86-27.69 62.86-25.05L62.86-25.05 62.86-18.14 51.92-18.14 51.92-10.84Q51.92-7.37 52.4-5.55 52.88-3.74 55-3.74L55-3.74Q56.39-3.74 56.99-4.6 57.59-5.47 57.72-7.04 57.86-8.62 57.86-10.77L57.86-10.77 57.86-13.72 62.76-13.72 62.76-12.16Q62.76-9.3 62.53-6.98 62.3-4.66 61.54-3 60.79-1.34 59.21-0.45 57.64 0.44 54.95 0.44ZM51.9-26.03L51.9-21.53 57.86-21.53 57.86-26.2Q57.86-28.39 57.71-29.9 57.56-31.4 57-32.17 56.44-32.93 55.15-32.93L55.15-32.93Q53.71-32.93 53.01-32.06 52.31-31.18 52.11-29.63 51.9-28.08 51.9-26.03L51.9-26.03ZM73.97 0L68.96 0 68.96-43.43 73.97-43.43 73.97 0ZM86.24 0L81.24 0 81.24-43.43 86.24-43.43 86.24 0ZM97.38 6.13L92.47 6.13 92.47 2.34 94.2 2.34Q95.28 2.34 96.07 2.23 96.86 2.12 97.03 1.76L97.03 1.76Q97.33 1.37 97.27 0.52 97.2-0.32 97.06-1.29L97.06-1.29 91.08-36.62 95.93-36.62 98.57-17.58 99.65-7.67 100.09-7.67 101.04-17.58 103.43-36.62 108.26-36.62 102.18 0.71Q101.89 2.69 101.45 3.88 101.01 5.08 100.1 5.6 99.18 6.13 97.38 6.13L97.38 6.13Z" opacity="1" transform="matrix(1,0,0,1,0,0)" fill="#ffffff" class="wordmark-text-0" data-fill-palette-color="quaternary" id="text-0"></path></svg></g></svg></g></svg></g></svg></g><g></g></svg></g><defs></defs></svg><rect width="395.52" height="184.9999400550964" fill="none" stroke="none" visibility="hidden"></rect></g></svg></g></svg>